<?xml version="1.0" encoding="utf-8"?>
<!-- Generator: Adobe Illustrator 28.0.0, SVG Export Plug-In . SVG Version: 6.00 Build 0)  -->
<svg version="1.1" id="CPM" xmlns="http://www.w3.org/2000/svg" xmlns:xlink="http://www.w3.org/1999/xlink" x="0px" y="0px"
	 viewBox="0 0 195.6 228.2" style="enable-background:new 0 0 195.6 228.2;" xml:space="preserve">
<g id="CPM_00000096747967138515892780000015649209112165938821_">
	<polygon id="M" style="fill:#393939;" points="195.6,0 195.6,163 152.1,163 152.1,141.3 173.9,141.3 173.9,51.9 160.5,121.9 
		143.7,121.9 130.4,51.9 130.4,119.5 108.7,119.5 108.7,0 134.3,0 152.1,84.5 170,0 	"/>
	<path id="C" style="fill:#393939;" d="M43.5,43.5V28c0-3.5-2.8-6.3-6.3-6.3H28c-3.5,0-6.3,2.8-6.3,6.3v107c0,3.5,2.8,6.3,6.3,6.3
		h37.2V163H21.6C9.7,163,0,153.3,0,141.4V21.6C0,9.7,9.7,0,21.6,0h21.9c12,0,21.6,9.7,21.6,21.6v21.8H43.5L43.5,43.5z"/>
	
		<linearGradient id="CP_00000150072476526721215490000005792459835394447785_" gradientUnits="userSpaceOnUse" x1="80.35" y1="77.875" x2="44.77" y2="77.875" gradientTransform="matrix(1 0 0 -1 0 230)">
		<stop  offset="0" style="stop-color:#000000"/>
		<stop  offset="0.75" style="stop-color:#262626;stop-opacity:0.33"/>
		<stop  offset="0.86" style="stop-color:#393939;stop-opacity:0"/>
	</linearGradient>
	
		<rect id="CP" x="42.8" y="141.3" style="opacity:0.79;fill:url(#CP_00000150072476526721215490000005792459835394447785_);enable-background:new    ;" width="22.4" height="21.7"/>
	
		<radialGradient id="PM_00000160900326717518219400000001536762590503455377_" cx="92.86" cy="106.51" r="77.05" gradientTransform="matrix(1 0 0 -1 0 230)" gradientUnits="userSpaceOnUse">
		<stop  offset="0.49" style="stop-color:#000000"/>
		<stop  offset="0.99" style="stop-color:#393939;stop-opacity:0"/>
	</radialGradient>
	<path id="PM" style="fill:url(#PM_00000160900326717518219400000001536762590503455377_);" d="M130.4,56.3v32.6l-21.7-16.3V45.7
		h1.6C118.6,45.7,126,49.9,130.4,56.3z"/>
	<path id="P" style="fill:#8189C6;" d="M65.2,65.2v163h21.7V163h21.8c11.9,0,21.6-9.7,21.6-21.6V86.8c0-11.9-9.7-21.6-21.6-21.6
		L65.2,65.2L65.2,65.2z M102.4,141.3H86.9V86.9h15.4c3.5,0,6.3,2.8,6.3,6.3V135C108.7,138.4,105.8,141.3,102.4,141.3z"/>
</g>
</svg>
