<?xml version="1.0" encoding="UTF-8"?>
<svg id="Calque_2" data-name="Calque 2" xmlns="http://www.w3.org/2000/svg" viewBox="0 0 352.85 352.85">
  <defs>
    <style>
      .cls-1 {
        fill: #fff;
      }

      .cls-1, .cls-2 {
        stroke-width: 0px;
      }

      .cls-2 {
        fill: #8189c6;
      }
    </style>
  </defs>
  <g id="Calque_5" data-name="Calque 5">
    <rect class="cls-2" width="352.85" height="352.85" rx="82.47" ry="82.47"/>
    <g>
      <polygon class="cls-1" points="300.72 43.4 300.72 250.56 245.48 250.56 245.48 222.93 273.1 222.93 273.1 109.39 256.16 198.38 234.8 198.38 217.86 109.39 217.86 156.08 190.23 156.08 190.23 43.4 222.79 43.4 245.48 150.81 268.16 43.4 300.72 43.4"/>
      <path class="cls-1" d="m107.37,98.64v-19.64c0-4.4-3.58-7.98-7.98-7.98h-11.66c-4.4,0-7.98,3.58-7.98,7.98v135.96c0,4.4,3.58,7.98,7.98,7.98h47.26v27.62h-55.36c-15.19,0-27.5-12.31-27.5-27.5V70.9c0-15.19,12.31-27.5,27.5-27.5h27.87c15.19,0,27.5,12.31,27.5,27.5v27.74h-27.62Z"/>
      <path class="cls-1" d="m134.99,126.26v207.16h27.62v-82.86h27.75c15.18,0,27.49-12.31,27.49-27.49v-69.31c0-15.18-12.31-27.49-27.49-27.49h-55.37Zm47.26,96.67h-19.64v-69.05h19.64c4.41,0,7.98,3.57,7.98,7.98v53.09c0,4.41-3.57,7.98-7.98,7.98Z"/>
    </g>
  </g>
</svg>